# xmcd CD database file
#
# Track frame offsets:
#	150
#	16925
#	27128
#	40266
#	52286
#	65551
#	78633
#	92111
#	108145
#	124089
#	139686
#	149048
#	163845
#
# Disc length: 2397 seconds
#
# Revision: 3
# Processed by: cddbd v1.5.2PL0 Copyright (c) Steve Scherf et al.
# Submitted via: CDex 1.40Beta9
#
DISCID=b9095b0d
DTITLE=Vari - Winston Collection Jazz
DYEAR=2003
DGENRE=Jazz
TTITLE0=Steve Sidwell-Blue Note
TTITLE1=Bob Taylor-Frat Pack Swing
TTITLE2=Robin M Krive-Crush on you
TTITLE3=Ken Miller-Jump Club
TTITLE4=Terry Day-That Summertime
TTITLE5=Stephane Guillaume-Groove Bossa Nova
TTITLE6=Rick Krive-Go Big Daddy
TTITLE7=Matthew Wildman-Can't Get You Out Of My Mind
TTITLE8=Ib Glindemann-Old New York
TTITLE9=Henry Davies-All Day Long I Dream
TTITLE10=Eric Gemsa_Gabrielle Schneider-My Man
TTITLE11=John Horler-Jazz Club
TTITLE12=Eria Fachin_Caron Nightingale_Lou Bartolomucci-Just Might Fall In Love
EXTD=YEAR: 2003 ID3G: 8
EXTT0=
EXTT1=
EXTT2=
EXTT3=
EXTT4=
EXTT5=
EXTT6=
EXTT7=
EXTT8=
EXTT9=
EXTT10=
EXTT11=
EXTT12=
PLAYORDER=
